<?xml version="1.0" standalone="no"?>
<!DOCTYPE svg PUBLIC "-//W3C//DTD SVG 20010904//EN"
 "http://www.w3.org/TR/2001/REC-SVG-20010904/DTD/svg10.dtd">
<svg version="1.0" xmlns="http://www.w3.org/2000/svg"
 width="512.000000pt" height="512.000000pt" viewBox="0 0 512.000000 512.000000"
 preserveAspectRatio="xMidYMid meet">

<g transform="translate(0.000000,512.000000) scale(0.100000,-0.100000)"
fill="#000000" stroke="none">
<path d="M2428 4260 c-268 -46 -504 -221 -625 -465 -239 -481 6 -1045 522
-1201 80 -24 106 -27 235 -27 129 0 155 3 235 27 517 157 762 725 520 1206
-68 136 -197 275 -327 352 -161 96 -381 138 -560 108z"/>
<path d="M2350 2119 c-359 -34 -727 -132 -1005 -268 -275 -135 -433 -289 -480
-466 -11 -45 -15 -116 -15 -297 l0 -238 1710 0 1710 0 0 238 c0 260 -7 312
-58 406 -37 69 -171 203 -260 261 -393 253 -1095 413 -1602 364z"/>
</g>
</svg>
